<?xml version="1.0" standalone="no"?><!DOCTYPE svg PUBLIC "-//W3C//DTD SVG 1.1//EN" "http://www.w3.org/Graphics/SVG/1.1/DTD/svg11.dtd"><svg t="1618197876734" class="icon" viewBox="0 0 1024 1024" version="1.1" xmlns="http://www.w3.org/2000/svg" p-id="22914" xmlns:xlink="http://www.w3.org/1999/xlink" width="200" height="200"><defs><style type="text/css"></style></defs><path d="M893.44 626.688v249.088H122.88v-249.088a51.2 51.2 0 0 0-101.12 0v290.048a60.416 60.416 0 0 0 60.416 60.16h851.968a60.416 60.416 0 0 0 60.416-60.16V626.688a51.2 51.2 0 0 0-102.4 0z m0 0" p-id="22915" fill="#16b6e8"></path><path d="M543.744 656.64l188.416-188.416a51.2 51.2 0 0 0-71.424-71.68L563.2 495.104V133.376a54.272 54.272 0 1 0-108.544 0v361.728l-98.56-98.56a51.2 51.2 0 0 0-71.424 71.424l188.416 188.416a51.2 51.2 0 0 0 71.424 0z m0 0" p-id="22916" fill="#16b6e8"></path></svg>