<?xml version="1.0" standalone="no"?><!DOCTYPE svg PUBLIC "-//W3C//DTD SVG 1.1//EN" "http://www.w3.org/Graphics/SVG/1.1/DTD/svg11.dtd"><svg t="1618198968444" class="icon" viewBox="0 0 1024 1024" version="1.1" xmlns="http://www.w3.org/2000/svg" p-id="28068" xmlns:xlink="http://www.w3.org/1999/xlink" width="200" height="200"><defs><style type="text/css"></style></defs><path d="M774.255 295.1c0-162.969-134.04-295.1-299.35-295.1-165.349 0-299.39 132.131-299.39 295.1 0 102.297 52.838 192.316 132.992 245.283-165.713 65.161-282.905 224.71-282.905 411.359 0 10.511 0.615 20.838 1.414 31.145h0.071c0 22.712 18.703 41.103 41.728 41.103 23.066 0 41.728-18.391 41.728-41.103 0-1.28-0.256-2.489-0.4-3.769-0.798-9.057-1.49-18.114-1.49-27.376 0-199.372 163.968-360.994 366.212-360.994 202.28 0.005 299.39-193.382 299.39-295.648z m-299.35 211.952c-118.788 0-215.064-94.894-215.064-211.952S356.117 83.143 474.906 83.143c118.752 0 215.028 94.899 215.028 211.957-0.005 117.053-96.28 211.952-215.028 211.952z m486.076 260.944H811.319V621.708c0-20.198-16.748-36.572-37.412-36.572s-37.411 16.374-37.411 36.572v146.288H586.834c-20.665 0-37.417 16.374-37.417 36.567 0 20.198 16.747 36.572 37.417 36.572h149.662v146.283c0 20.198 16.747 36.567 37.411 36.567s37.412-16.374 37.412-36.567V841.135H960.98c20.664 0 37.417-16.374 37.417-36.572 0-20.188-16.753-36.567-37.417-36.567z" fill="#16b6e8" p-id="28069"></path></svg>