<?xml version="1.0" standalone="no"?><!DOCTYPE svg PUBLIC "-//W3C//DTD SVG 1.1//EN" "http://www.w3.org/Graphics/SVG/1.1/DTD/svg11.dtd"><svg t="1618197406882" class="icon" viewBox="0 0 1024 1024" version="1.1" xmlns="http://www.w3.org/2000/svg" p-id="12491" data-spm-anchor-id="a313x.7781069.0.i20" xmlns:xlink="http://www.w3.org/1999/xlink" width="200" height="200"><defs><style type="text/css"></style></defs><path d="M812.40576 808.11008A425.10336 425.10336 0 0 0 936.96 507.01312C936.96 272.62464 747.4688 81.92 514.56 81.92S92.16 272.62464 92.16 507.01312s189.47584 425.08288 422.4 425.08288a418.41664 418.41664 0 0 0 257.06496-88.13056c0.06144 0.06144 0.09728 0.13824 0.15872 0.2048l100.224 104.9088a26.94144 26.94144 0 0 0 38.25152 0.75264 27.35104 27.35104 0 0 0 0.75264-38.49728zM146.28864 507.01312c0-204.3648 165.20704-370.62656 368.27648-370.62656s368.27136 166.26176 368.27136 370.62656-165.20704 370.63168-368.27136 370.63168-368.27648-166.26688-368.27648-370.63168z" fill="#e0e9ef" p-id="12492" data-spm-anchor-id="a313x.7781069.0.i22" class="selected"></path><path d="M591.5392 485.1712a107.96032 107.96032 0 1 0-158.66368 1.93536 206.848 206.848 0 0 0-124.99968 189.71136 27.05408 27.05408 0 0 0 54.10816 0 152.576 152.576 0 0 1 305.152 0 27.05408 27.05408 0 0 0 54.10816 0 206.848 206.848 0 0 0-129.70496-191.64672zM511.32928 359.36256A53.82656 53.82656 0 1 1 457.46688 413.184a53.90336 53.90336 0 0 1 53.8624-53.82144z" fill="#16b6e8" p-id="12493" data-spm-anchor-id="a313x.7781069.0.i17" class=""></path></svg>