<?xml version="1.0" standalone="no"?><!DOCTYPE svg PUBLIC "-//W3C//DTD SVG 1.1//EN" "http://www.w3.org/Graphics/SVG/1.1/DTD/svg11.dtd"><svg t="1618196692404" class="icon" viewBox="0 0 1024 1024" version="1.1" xmlns="http://www.w3.org/2000/svg" p-id="1504" xmlns:xlink="http://www.w3.org/1999/xlink" width="200" height="200"><defs><style type="text/css"></style></defs><path d="M419.8 379.42l-1.15 1.98c1.49-0.52 2.94-1.18 4.36-1.98h-3.21zM484 450.51h14.75l-18.03-31.23-11.34 19.64A21.43 21.43 0 0 1 484 450.51zM467.09 442.9l-4.39 7.61h16.34c-2.64-4.05-6.95-6.92-11.95-7.61z" fill="#FFFFFF" p-id="1505"></path><path d="M793.75 847.49c-2.51 0-5.02 0-7.54-1.26-10.06-3.76-13.83-15.07-8.8-25.13l13.82-30.16c3.77-10.06 15.08-13.82 25.13-8.8 10.05 3.77 13.81 15.08 8.79 25.13l-13.81 30.16c-3.77 6.29-11.31 10.06-17.59 10.06zM673.11 847.49c-2.51 0-5.02 0-7.54-1.26-10.06-3.76-13.83-15.07-8.8-25.13l13.82-30.16c3.77-10.06 15.08-13.82 25.13-8.8 10.05 3.77 13.81 15.08 8.79 25.13l-13.82 30.16c-3.75 6.29-10.03 10.06-17.58 10.06zM552.48 847.49c-2.51 0-5.02 0-7.54-1.26-10.06-3.76-13.83-15.07-8.8-25.13l13.82-30.16c3.77-10.06 15.08-13.82 25.13-8.8 10.04 3.77 13.81 15.08 8.79 25.13l-13.81 30.16c-3.77 6.29-10.05 10.06-17.59 10.06zM431.85 847.49c-2.51 0-5.03 0-7.54-1.26-10.06-3.76-13.83-15.07-8.8-25.13l13.82-30.16c3.77-10.06 15.08-13.82 25.13-8.8 10.04 3.77 13.81 15.08 8.79 25.13l-13.81 30.16c-2.51 6.29-10.05 10.06-17.59 10.06zM683.17 958.08c-2.51 0-5.03 0-7.54-1.26-10.05-3.77-13.83-15.08-8.8-25.13l13.82-30.16c3.77-10.04 15.08-13.81 25.13-8.79 10.05 3.77 13.81 15.07 8.79 25.13l-13.82 30.15c-3.77 5.03-10.04 10.06-17.58 10.06zM562.54 958.08c-2.51 0-5.03 0-7.54-1.26-10.05-3.77-13.83-15.08-8.8-25.13l13.82-30.16c3.77-10.04 15.08-13.81 25.13-8.79 10.05 3.77 13.81 15.07 8.79 25.13l-13.82 30.15c-2.51 5.03-10.04 10.06-17.58 10.06zM443.16 958.08c-2.51 0-5.03 0-7.54-1.26-10.06-3.77-13.83-15.08-8.8-25.13l13.82-30.16c3.77-10.04 15.08-13.81 25.13-8.79 10.04 3.77 13.81 15.07 8.79 25.13l-13.82 30.15c-3.77 5.03-11.3 10.06-17.58 10.06z" fill="#1088FF" p-id="1506"></path><path d="M617.73 730.63c-5.03 0-11.31-2.51-15.08-7.54-6.28-7.54-5.03-20.11 2.51-26.39l100.53-80.42-81.68-33.93c-6.28-2.51-11.31-8.8-11.31-15.08-1.27-7.54 2.51-13.82 8.8-17.59l111.84-72.88c8.8-6.28 20.11-3.77 26.39 5.03 6.28 8.8 3.77 20.11-5.03 26.39l-81.68 54.03 79.17 32.67c6.28 2.51 10.05 7.54 11.3 15.08 1.27 6.28-1.25 13.82-6.27 17.59L631.54 728.12c-6.27 1.25-10.04 2.51-13.81 2.51zM283.04 529.37c-10.01 0-19.62-5.61-24.25-15.24-21.08-43.82-23.81-93.23-7.71-139.13 16.1-45.88 49.11-82.75 92.95-103.8 90.46-43.46 199.49-5.2 242.93 85.29 6.43 13.39 0.78 29.46-12.6 35.88-13.35 6.41-29.45 0.81-35.88-12.59-30.6-63.78-107.4-90.68-171.17-60.1-30.88 14.84-54.14 40.8-65.48 73.12-11.34 32.33-9.41 67.13 5.44 98.02 6.43 13.38 0.8 29.45-12.59 35.89-3.76 1.8-7.73 2.66-11.64 2.66zM623.96 285.39c-9.39 0-18.52-4.92-23.45-13.69-7.29-12.93-2.72-29.33 10.21-36.63l61.66-34.77c12.91-7.25 29.33-2.72 36.64 10.22 7.29 12.93 2.72 29.34-10.21 36.64l-61.66 34.77a26.818 26.818 0 0 1-13.19 3.46zM438.94 203.51c-14.85 0-26.89-12.04-26.89-26.89v-83.8c0-14.85 12.04-26.89 26.89-26.89 14.85 0 26.89 12.04 26.89 26.89v83.8c0 14.85-12.04 26.89-26.89 26.89zM245.97 267.08c-6.88 0-13.76-2.62-19.01-7.88l-61.63-61.61c-10.51-10.5-10.51-27.52 0-38.03 10.5-10.5 27.52-10.5 38.03 0l61.63 61.61c10.51 10.5 10.51 27.52 0 38.03a26.845 26.845 0 0 1-19.02 7.88zM95.04 429.57c-14.85 0-26.88-12.03-26.89-26.88-0.01-14.85 12.03-26.89 26.88-26.91l56.92-0.03c14.85 0 26.88 12.03 26.89 26.88 0.01 14.85-12.03 26.89-26.88 26.91l-56.92 0.03z" fill="#FFCC00" p-id="1507"></path><path d="M928.95 759.37c-14.38 0-26.3-15.53-26.86-35.34-0.36-12.78-6.88-324.57-216.69-324.57-93.78 0-150.47 65.62-177.81 110.99-26.1 43.34-34.05 86.56-33.47 100.77 7.08 15.94 4.3 36.62-6.46 48.09-10.82 11.53-26.2 10.09-35.75-3.29-2.1-2.93-3.87-6.14-5.34-9.53-7.9-14.02-42.35-64.46-113.15-38.23-2.76 1.39-67.45 34.87-67.45 114.33 0 20.3-12.04 36.77-26.89 36.77-14.85 0-26.89-16.46-26.89-36.77 0-131.59 98.78-181.46 105.01-184.37 59.55-22.12 102.48-6.57 131.15 15.72 1.5-5.87 2.99-11.04 4.27-15.18 14.52-47.21 75.35-201.32 248.36-201.32 208.79 0 271.09 250.99 274.86 383.71 0.58 20.31-10.98 37.4-25.82 38.17-0.37 0.06-0.73 0.06-1.07 0.05z" fill="#1088FF" p-id="1508"></path></svg>